<svg id="Layer_1" data-name="Layer 1" xmlns="http://www.w3.org/2000/svg" xmlns:xlink="http://www.w3.org/1999/xlink" viewBox="0 0 2747.63957 1540.57615"><defs><style>.cls-1{fill:none;}.cls-2{clip-path:url(#clip-path);}.cls-3{fill:url(#linear-gradient);}.cls-4{fill:#d8d8d8;}</style><clipPath id="clip-path" transform="translate(682.8059 625.6662)"><path class="cls-1" d="M321.68688,287.09377q-20.82241,0-41.4631-1.277a293.35474,293.35474,0,0,1-42.92345-6.02809V34.29755a365.1319,365.1319,0,0,1,38.35737-4.93116q20.82241-1.64539,38.72412-1.64372a263.67986,263.67986,0,0,1,44.38546,3.47082q20.27478,3.47582,34.88655,11.8728a62.23838,62.23838,0,0,1,22.832,22.10187q8.21944,13.69823,8.22027,33.79129,0,30.32214-29.22522,47.85461,24.11068,9.13715,32.87775,24.84252,8.76707,15.7087,8.76707,35.435,0,39.81938-29.04184,59.91078Q379.04206,287.0971,321.68688,287.09377ZM292.82842,130.0101h27.76321q26.3012,0,37.6272-6.75826,11.31767-6.75659,11.32433-21.73512,0-15.34361-11.68942-21.55508-11.69526-6.20646-34.33976-6.21146-7.31172,0-15.7087.18338-8.407.19-14.97686.91355Zm0,43.47024v65.39207q6.20646.73517,13.51652,1.09693,7.30172.36509,16.07379.36342,25.566,0,41.27972-7.30505,15.7037-7.30172,15.7087-27.033,0-17.53413-13.15143-25.02256-13.1506-7.48676-37.6272-7.49176ZM548.18024,86.53652q24.11068,0,40.18447,5.48129,16.07129,5.47629,25.7544,15.707A57.84617,57.84617,0,0,1,627.819,132.56737a122.61033,122.61033,0,0,1,4.01761,32.511V278.325q-11.69526,2.5606-32.51266,6.02809-20.82241,3.47082-50.41354,3.47082a159.68841,159.68841,0,0,1-33.79129-3.28744,73.27589,73.27589,0,0,1-26.11949-10.77587,49.25723,49.25723,0,0,1-16.804-19.5446q-5.84888-12.05784-5.84471-29.5903,0-16.799,6.75826-28.49338a51.98765,51.98765,0,0,1,18.08259-18.63106,81.74594,81.74594,0,0,1,25.93778-10.0457,145.6546,145.6546,0,0,1,30.32048-3.1074,173.51436,173.51436,0,0,1,18.81277.91355,84.46557,84.46557,0,0,1,13.33481,2.37389v-5.11454q0-13.87827-8.402-22.28192-8.40948-8.402-29.22522-8.402a186.80246,186.80246,0,0,0-27.39812,2.00714,117.86575,117.86575,0,0,0-23.38051,5.66467l-6.94164-43.84033q4.74362-1.45534,11.8728-3.10406,7.12418-1.64539,15.527-2.92069,8.39948-1.2753,17.71751-2.19385Q538.68217,86.54486,548.18024,86.53652ZM552.5646,245.814q8.03189,0,15.34361-.36675a105.2923,105.2923,0,0,0,11.68942-1.09359V203.07064q-3.28827-.72517-9.864-1.46034a110.72426,110.72426,0,0,0-12.05451-.73017,108.75345,108.75345,0,0,0-14.43007.91355,37.79988,37.79988,0,0,0-11.8728,3.47082,20.34008,20.34008,0,0,0-8.03689,6.94164,19.30484,19.30484,0,0,0-2.92236,10.95925q0,12.788,8.58536,17.71751Q537.57941,245.814,552.5646,245.814Zm183.75-1.09693q14.97353,0,21.18832-2.92069,6.20646-2.92069,6.20813-11.326,0-6.57655-8.03523-11.506-8.04189-4.93116-24.47577-11.14263a249.54193,249.54193,0,0,1-23.1988-9.86232,68.2432,68.2432,0,0,1-17.71751-12.23955A49.41579,49.41579,0,0,1,678.961,168.73255q-4.02595-9.86232-4.01928-23.74559,0-27.03137,20.09307-42.74007,20.08473-15.7037,55.15966-15.71037a177.18694,177.18694,0,0,1,33.61125,3.1074q16.06879,3.10573,25.56936,6.75826l-9.49557,42.37665a200.59139,200.59139,0,0,0-20.64153-5.848,112.45967,112.45967,0,0,0-25.02256-2.55727q-25.576,0-25.57269,14.25a14.65424,14.65424,0,0,0,1.09693,5.84471,12.43676,12.43676,0,0,0,4.381,4.93116,61.64639,61.64639,0,0,0,8.95211,5.13788q5.65633,2.76565,14.43007,6.07143a223.9092,223.9092,0,0,1,29.5903,13.07641q11.68775,6.45152,18.44768,13.91661a43.05942,43.05942,0,0,1,9.4989,16.58724,73.60258,73.60258,0,0,1,2.73731,21.13831q0,28.4317-21.36837,43.0168-21.37,14.56843-60.46091,14.57677-25.576,0-42.55669-4.38437-16.989-4.381-23.56388-7.30505L678.961,233.0277a178.03638,178.03638,0,0,0,28.49338,8.58536A138.51,138.51,0,0,0,736.31456,244.71712ZM927.36623,86.53652q24.11068,0,40.18613,5.48129,16.06879,5.47629,25.75273,15.707a57.8115,57.8115,0,0,1,13.69989,24.84252,122.61031,122.61031,0,0,1,4.01761,32.511V278.325q-11.69276,2.5606-32.511,6.02809-20.82491,3.47082-50.41521,3.47082a159.69959,159.69959,0,0,1-33.79129-3.28744,73.30134,73.30134,0,0,1-26.11949-10.77587,49.28349,49.28349,0,0,1-16.804-19.5446q-5.84638-12.05784-5.84471-29.5903,0-16.799,6.75826-28.49338a52.00585,52.00585,0,0,1,18.08426-18.63106,81.73625,81.73625,0,0,1,25.93611-10.0457,145.678,145.678,0,0,1,30.32048-3.1074,173.54683,173.54683,0,0,1,18.81443.91355,84.47594,84.47594,0,0,1,13.33314,2.37389v-5.11454q0-13.87827-8.402-22.28192-8.407-8.402-29.22355-8.402a186.842,186.842,0,0,0-27.39979,2.00714,117.87634,117.87634,0,0,0-23.37884,5.66467l-6.94164-43.84033q4.74112-1.45534,11.8728-3.10406,7.12168-1.64539,15.527-2.92069,8.397-1.2753,17.71751-2.19385Q917.86733,86.54486,927.36623,86.53652ZM931.7506,245.814q8.03189,0,15.34361-.36675a105.2516,105.2516,0,0,0,11.68942-1.09359V203.07064q-3.28577-.72517-9.86232-1.46034a110.75323,110.75323,0,0,0-12.05617-.73017,108.77184,108.77184,0,0,0-14.43007.91355,37.81308,37.81308,0,0,0-11.8728,3.47082,20.335,20.335,0,0,0-8.03523,6.94164,19.29221,19.29221,0,0,0-2.924,10.95925q0,12.788,8.58536,17.71751Q916.7654,245.814,931.7506,245.814Zm205.305,41.64648q-23.7506-.37009-38.54241-5.11454-14.79349-4.74612-23.37884-13.33648a44.154,44.154,0,0,1-11.68942-20.82157,112.14649,112.14649,0,0,1-3.10406-27.57983V9.09161L1114.77038.32288v209.326a71.66333,71.66333,0,0,0,1.09693,13.14976,22.60949,22.60949,0,0,0,4.201,9.86232,22.18535,22.18535,0,0,0,8.94878,6.57822q5.84137,2.5606,15.71037,3.28744Z"/></clipPath><linearGradient id="linear-gradient" x1="516.1939" y1="-398.33953" x2="605.77293" y2="2027.75911" gradientTransform="translate(130.3894 -660.36685)" gradientUnits="userSpaceOnUse"><stop offset="0" stop-color="#2e9f82"/><stop offset="0.02897" stop-color="#2e9f82"/><stop offset="0.31927" stop-color="#2fb079"/><stop offset="0.65175" stop-color="#2fbb73"/><stop offset="1" stop-color="#2fbf71"/></linearGradient></defs><title>basalogo</title><g class="cls-2"><rect class="cls-3" x="-79.27419" y="-1229.19791" width="1540.57615" height="2747.63957" transform="translate(1518.44166 79.27419) rotate(90)"/></g><path class="cls-4" d="M7.20319,385.56928H.76579V375.25095l7.19471-.56781,1.609-12.49583h11.549v12.49583H32.38367v10.88614H21.11855v18.83815c0,5.30046,2.36632,7.478,6.05842,7.478a13.28164,13.28164,0,0,0,4.4494-.94679l2.17683,10.1295a33.83165,33.83165,0,0,1-10.41275,1.70344c-11.64345,0-16.18726-7.28912-16.18726-18.17527Z" transform="translate(682.8059 625.6662)"/><path class="cls-4" d="M41.5611,355.27717H55.47646v16.28168l-.66223,8.42607c3.50261-3.12429,8.14084-6.4374,14.48317-6.4374,10.22392,0,14.57824,7.194,14.57824,18.93191V421.6359H69.96028v-27.358c0-6.81506-1.79851-8.89748-5.77452-8.89748-3.50261,0-5.6801,1.60836-8.70931,4.54382V421.6359H41.5611Z" transform="translate(682.8059 625.6662)"/><path class="cls-4" d="M115.01352,373.54751c13.34754,0,19.97378,9.75052,19.97378,22.52893a27.5731,27.5731,0,0,1-.56781,5.86959H106.30487c1.2307,7.10029,5.96335,10.22326,12.21126,10.22326a18.91147,18.91147,0,0,0,10.12884-3.123l4.63889,8.42475a30.71563,30.71563,0,0,1-16.66066,5.30046c-13.44262,0-23.761-9.08763-23.761-24.61135C92.86225,382.919,103.74906,373.54751,115.01352,373.54751Zm8.14084,19.78363c0-5.39553-2.27125-9.18139-7.85693-9.18139-4.35433,0-8.14084,2.93414-9.08763,9.18139Z" transform="translate(682.8059 625.6662)"/><path class="cls-4" d="M190.82963,366.06824a15.05477,15.05477,0,0,0-4.82772-.94547c-3.40819,0-5.39553,1.89227-5.39553,6.72v2.84038h8.42475v10.88614h-8.42475V421.6359H166.691V385.56928h-6.24725V375.25095l6.24725-.47274v-2.55647c0-9.93935,4.63889-18.08019,17.32355-18.08019a28.10468,28.10468,0,0,1,9.37154,1.70344Z" transform="translate(682.8059 625.6662)"/><path class="cls-4" d="M196.60018,374.68313h11.35888l.94679,8.23591h.379c3.40819-6.34233,8.51982-9.37154,13.34754-9.37154a13.48645,13.48645,0,0,1,5.58436.94679l-2.27125,12.02177a17.56426,17.56426,0,0,0-5.11163-.758c-3.50327,0-7.85693,2.27257-10.31833,8.6149v27.2629H196.60018Z" transform="translate(682.8059 625.6662)"/><path class="cls-4" d="M252.7317,373.54751c13.34754,0,19.97378,9.75052,19.97378,22.52893a27.5731,27.5731,0,0,1-.56781,5.86959H244.02173c1.2307,7.10029,5.96467,10.22326,12.21192,10.22326a18.9136,18.9136,0,0,0,10.1295-3.123l4.63757,8.42475a30.71391,30.71391,0,0,1-16.66066,5.30046c-13.4413,0-23.75963-9.08763-23.75963-24.61135C230.58043,382.919,241.46657,373.54751,252.7317,373.54751Zm8.14084,19.78363c0-5.39553-2.27257-9.18139-7.85693-9.18139-4.355,0-8.14084,2.93414-9.08763,9.18139Z" transform="translate(682.8059 625.6662)"/><path class="cls-4" d="M301.7616,373.54751c13.34754,0,19.97378,9.75052,19.97378,22.52893a27.5731,27.5731,0,0,1-.56781,5.86959H293.05163c1.2307,7.10029,5.96467,10.22326,12.21192,10.22326a18.9136,18.9136,0,0,0,10.1295-3.123l4.63757,8.42475A30.71391,30.71391,0,0,1,303.37,422.77153c-13.4413,0-23.75963-9.08763-23.75963-24.61135C279.61033,382.919,290.49648,373.54751,301.7616,373.54751Zm8.14084,19.78363c0-5.39553-2.27257-9.18139-7.85693-9.18139-4.355,0-8.14084,2.93414-9.08763,9.18139Z" transform="translate(682.8059 625.6662)"/><path class="cls-4" d="M370.47874,373.54751c13.34754,0,19.97378,9.75052,19.97378,22.52893a27.5731,27.5731,0,0,1-.56781,5.86959H361.76877c1.2307,7.10029,5.96467,10.22326,12.21192,10.22326a18.917,18.917,0,0,0,10.1295-3.123l4.63757,8.42475a30.71391,30.71391,0,0,1-16.66066,5.30046c-13.4413,0-23.75963-9.08763-23.75963-24.61135C348.32747,382.919,359.21361,373.54751,370.47874,373.54751Zm8.14084,19.78363c0-5.39553-2.27257-9.18139-7.85693-9.18139-4.355,0-8.14084,2.93414-9.08763,9.18139Z" transform="translate(682.8059 625.6662)"/><path class="cls-4" d="M421.77989,373.54751a18.96065,18.96065,0,0,1,13.72652,5.39553l-6.34233,8.61358a10.04982,10.04982,0,0,0-6.53248-2.744c-6.72,0-10.9799,5.20538-10.9799,13.34754,0,8.14084,4.44874,13.34622,10.50716,13.34622a13.529,13.529,0,0,0,8.42475-3.40687l5.58569,8.80373a24.37411,24.37411,0,0,1-15.62011,5.86827c-13.06364,0-23.19182-8.99256-23.19182-24.61135C397.35737,382.54007,408.81133,373.54751,421.77989,373.54751Z" transform="translate(682.8059 625.6662)"/><path class="cls-4" d="M461.81724,373.54751c11.83294,0,22.81416,8.99256,22.81416,24.61267,0,15.61879-10.98122,24.61135-22.81416,24.61135-11.92669,0-22.90791-8.99256-22.90791-24.61135C438.90933,382.54007,449.89055,373.54751,461.81724,373.54751Zm0,37.95889c5.67944,0,8.6149-5.20538,8.6149-13.34622,0-8.14216-2.93546-13.34754-8.6149-13.34754-5.77452,0-8.61358,5.20538-8.61358,13.34754C453.20366,406.301,456.04272,411.5064,461.81724,411.5064Z" transform="translate(682.8059 625.6662)"/><path class="cls-4" d="M492.10407,392.76332H515.391v9.8456H492.10407Z" transform="translate(682.8059 625.6662)"/><path class="cls-4" d="M552.11519,366.06824a15.048,15.048,0,0,0-4.82772-.94547c-3.40819,0-5.39553,1.89227-5.39553,6.72v2.84038h8.42475v10.88614h-8.42475V421.6359H527.97658V385.56928H521.728V375.25095l6.24857-.47274v-2.55647c0-9.93935,4.63889-18.08019,17.32355-18.08019a28.10468,28.10468,0,0,1,9.37154,1.70344Z" transform="translate(682.8059 625.6662)"/><path class="cls-4" d="M557.88575,374.68313h11.35888l.94679,8.23591h.379c3.40819-6.34233,8.51982-9.37154,13.34754-9.37154a13.48645,13.48645,0,0,1,5.58436.94679l-2.27125,12.02177a17.56426,17.56426,0,0,0-5.11163-.758c-3.50327,0-7.85693,2.27257-10.31833,8.6149v27.2629H557.88575Z" transform="translate(682.8059 625.6662)"/><path class="cls-4" d="M594.41982,360.48387c0-4.25991,3.40819-7.194,8.04708-7.194,4.73265,0,8.04576,2.93414,8.04576,7.194s-3.31312,7.28912-8.04576,7.28912C597.828,367.773,594.41982,364.74378,594.41982,360.48387Zm1.13694,14.19926h13.91536V421.6359H595.55677Z" transform="translate(682.8059 625.6662)"/><path class="cls-4" d="M641.086,373.54751c13.34754,0,19.97378,9.75052,19.97378,22.52893a27.5731,27.5731,0,0,1-.56781,5.86959H632.37608c1.2307,7.10029,5.96467,10.22326,12.21192,10.22326a18.9136,18.9136,0,0,0,10.1295-3.123l4.63757,8.42475a30.71391,30.71391,0,0,1-16.66066,5.30046c-13.4413,0-23.75963-9.08763-23.75963-24.61135C618.93478,382.919,629.82092,373.54751,641.086,373.54751Zm8.14084,19.78363c0-5.39553-2.27257-9.18139-7.85693-9.18139-4.355,0-8.14084,2.93414-9.08763,9.18139Z" transform="translate(682.8059 625.6662)"/><path class="cls-4" d="M670.71,374.68313h11.35888l.94679,5.96335h.379c3.976-3.78585,8.70865-7.099,15.051-7.099,10.22326,0,14.57824,7.194,14.57824,18.93191V421.6359H699.10851v-27.358c0-6.81506-1.79851-8.89748-5.77452-8.89748-3.50195,0-5.67944,1.60836-8.70865,4.54382V421.6359H670.71Z" transform="translate(682.8059 625.6662)"/><path class="cls-4" d="M741.88852,373.54751c5.2067,0,8.331,1.89227,11.549,4.92148l-.56781-7.194V355.27717H766.7851V421.6359H755.42622l-.94679-4.63889h-.379c-3.31312,3.31312-7.952,5.77452-12.49583,5.77452-11.64279,0-19.21581-9.27646-19.21581-24.61135C722.3888,382.824,731.94917,373.54751,741.88852,373.54751Zm3.31444,37.86514c3.02921,0,5.39553-1.13562,7.66678-4.25991V387.9356a11.12263,11.12263,0,0,0-7.76186-3.02921c-4.45006,0-8.42475,4.16616-8.42475,13.06364C736.68314,407.24781,739.8061,411.41265,745.203,411.41265Z" transform="translate(682.8059 625.6662)"/><path class="cls-4" d="M779.08549,355.27717h13.91536v52.3483c0,2.93546,1.32445,3.88093,2.4614,3.88093a5.85031,5.85031,0,0,0,1.70344-.18883l1.70344,10.31833a18.13624,18.13624,0,0,1-7.00522,1.13562c-9.56037,0-12.77841-6.24725-12.77841-15.71387Z" transform="translate(682.8059 625.6662)"/><path class="cls-4" d="M810.32043,429.0201c4.63889,0,7.00522-2.4614,8.23591-6.1535l.66289-2.4614-18.08151-45.72207h14.01043l6.72131,20.16261c1.32445,4.25991,2.4614,8.71,3.6921,13.34754h.37766c1.04187-4.44874,2.08242-8.89748,3.21936-13.34754l5.67944-20.16261h13.34754l-16.28168,47.42551C827.45383,433.94158,822.43727,440,811.3623,440a21.36141,21.36141,0,0,1-6.62755-.94679l2.4614-10.60092A15.31411,15.31411,0,0,0,810.32043,429.0201Z" transform="translate(682.8059 625.6662)"/><path class="cls-4" d="M901.66157,366.06824a15.05477,15.05477,0,0,0-4.82772-.94547c-3.40819,0-5.39553,1.89227-5.39553,6.72v2.84038h8.42475v10.88614h-8.42475V421.6359H877.523V385.56928h-6.24725V375.25095l6.24725-.47274v-2.55647c0-9.93935,4.63889-18.08019,17.32355-18.08019A28.10468,28.10468,0,0,1,904.218,355.845Z" transform="translate(682.8059 625.6662)"/><path class="cls-4" d="M926.64794,373.54751c11.83294,0,22.81416,8.99256,22.81416,24.61267,0,15.61879-10.98122,24.61135-22.81416,24.61135-11.928,0-22.90791-8.99256-22.90791-24.61135C903.74,382.54007,914.71993,373.54751,926.64794,373.54751Zm0,37.95889c5.67944,0,8.6149-5.20538,8.6149-13.34622,0-8.14216-2.93546-13.34754-8.6149-13.34754-5.77452,0-8.61358,5.20538-8.61358,13.34754C918.03436,406.301,920.87342,411.5064,926.64794,411.5064Z" transform="translate(682.8059 625.6662)"/><path class="cls-4" d="M979.17979,373.54751c11.83294,0,22.81416,8.99256,22.81416,24.61267,0,15.61879-10.98122,24.61135-22.81416,24.61135-11.928,0-22.90791-8.99256-22.90791-24.61135C956.27188,382.54007,967.25178,373.54751,979.17979,373.54751Zm0,37.95889c5.67944,0,8.6149-5.20538,8.6149-13.34622,0-8.14216-2.93546-13.34754-8.6149-13.34754-5.77452,0-8.61358,5.20538-8.61358,13.34754C970.56622,406.301,973.40528,411.5064,979.17979,411.5064Z" transform="translate(682.8059 625.6662)"/><path class="cls-4" d="M1028.58736,373.54751c5.2067,0,8.331,1.89227,11.549,4.92148l-.56781-7.194V355.27717h13.91536V421.6359h-11.35888l-.94679-4.63889h-.379c-3.31312,3.31312-7.952,5.77452-12.49582,5.77452-11.64279,0-19.21581-9.27646-19.21581-24.61135C1009.08764,382.824,1018.648,373.54751,1028.58736,373.54751Zm3.31312,37.86514c3.02921,0,5.39685-1.13562,7.6681-4.25991V387.9356a11.12263,11.12263,0,0,0-7.76186-3.02921c-4.44874,0-8.42475,4.16616-8.42475,13.06364C1023.382,407.24781,1026.50494,411.41265,1031.90047,411.41265Z" transform="translate(682.8059 625.6662)"/><path class="cls-4" d="M1087.36382,385.56928h-6.43608V375.25095l7.194-.56781,1.60968-12.49583h11.54771v12.49583h11.26513v10.88614h-11.26513v18.83815c0,5.30046,2.36764,7.478,6.05842,7.478a13.27849,13.27849,0,0,0,4.45006-.94679l2.17749,10.1295a33.83648,33.83648,0,0,1-10.41341,1.70344c-11.64411,0-16.18792-7.28912-16.18792-18.17527Z" transform="translate(682.8059 625.6662)"/><path class="cls-4" d="M1121.723,374.68313h11.35888l.94679,8.23591h.379c3.40819-6.34233,8.51982-9.37154,13.34754-9.37154a13.48646,13.48646,0,0,1,5.58437.94679l-2.27125,12.02177a17.56427,17.56427,0,0,0-5.11163-.758c-3.50327,0-7.85693,2.27257-10.31833,8.6149v27.2629H1121.723Z" transform="translate(682.8059 625.6662)"/><path class="cls-4" d="M1181.35651,391.43887c-.28391-4.16616-2.36632-6.81638-7.3842-6.81638-3.97468,0-7.95069,1.60968-12.49451,4.25991l-4.9228-9.18271c5.96335-3.597,12.68466-6.15218,20.06885-6.15218,12.02177,0,18.648,6.81506,18.648,21.20448V421.6359H1183.913l-1.04187-4.82772h-.28391c-3.976,3.50195-8.42474,5.96335-13.72652,5.96335-8.5185,0-13.91536-6.24725-13.91536-14.19926C1154.94533,398.728,1162.80227,393.33114,1181.35651,391.43887Zm-7.76186,20.54159c3.218,0,5.30046-1.51461,7.76186-3.976v-8.23591c-9.93935,1.32577-13.15739,4.16483-13.15739,7.76318C1168.19912,410.56093,1170.28154,411.98046,1173.59466,411.98046Z" transform="translate(682.8059 625.6662)"/><path class="cls-4" d="M1228.87181,373.54751a18.96065,18.96065,0,0,1,13.72652,5.39553l-6.34233,8.61358a10.04982,10.04982,0,0,0-6.53248-2.744c-6.72131,0-10.9799,5.20538-10.9799,13.34754,0,8.14084,4.44874,13.34622,10.50716,13.34622a13.529,13.529,0,0,0,8.42475-3.40687l5.58569,8.80373a24.37411,24.37411,0,0,1-15.62011,5.86827c-13.06364,0-23.19182-8.99256-23.19182-24.61135C1204.44929,382.54007,1215.90325,373.54751,1228.87181,373.54751Z" transform="translate(682.8059 625.6662)"/><path class="cls-4" d="M1251.39678,355.27717h13.53637v38.054h.379l14.86215-18.648h15.14605L1278.84851,393.994,1296.551,421.6359h-15.0523l-10.60224-18.27034-5.96335,6.72131v11.549h-13.53637Z" transform="translate(682.8059 625.6662)"/><path class="cls-4" d="M1320.02148,373.54751c13.34754,0,19.97378,9.75052,19.97378,22.52893a27.5731,27.5731,0,0,1-.56781,5.86959h-28.11594c1.2307,7.10029,5.96467,10.22326,12.21192,10.22326a18.917,18.917,0,0,0,10.1295-3.123l4.63757,8.42475a30.71391,30.71391,0,0,1-16.66066,5.30046c-13.4413,0-23.75963-9.08763-23.75963-24.61135C1297.87021,382.919,1308.75636,373.54751,1320.02148,373.54751Zm8.14084,19.78363c0-5.39553-2.27257-9.18139-7.85693-9.18139-4.355,0-8.14084,2.93414-9.08763,9.18139Z" transform="translate(682.8059 625.6662)"/><path class="cls-4" d="M1349.64542,374.68313h11.35888l.94679,8.23591h.379c3.40819-6.34233,8.51982-9.37154,13.34754-9.37154a13.48646,13.48646,0,0,1,5.58436.94679l-2.27125,12.02177a17.56427,17.56427,0,0,0-5.11163-.758c-3.50327,0-7.85693,2.27257-10.31833,8.6149v27.2629h-13.91535Z" transform="translate(682.8059 625.6662)"/></svg>