<svg id="Layer_1" data-name="Layer 1" xmlns="http://www.w3.org/2000/svg" viewBox="0 0 451.31836 283.19364"><defs><style>.cls-1{fill:#fff;}</style></defs><title>coastalpeopleslogo</title><path d="M32.03418,209.9248l3.78418,3.39355q-6.93384,6.32373-14.67285,6.32324a19.22218,19.22218,0,0,1-14.11133-5.835,19.981,19.981,0,0,1,0-28.22266,19.18256,19.18256,0,0,1,14.11133-5.85937q7.73877,0,14.67285,6.32324l-3.78418,3.44238q-5.2251-4.63843-10.88867-4.63867a14.31566,14.31566,0,0,0-10.48584,4.3457,14.85307,14.85307,0,0,0,0,21.02051,14.31377,14.31377,0,0,0,10.48584,4.3457Q26.80933,214.56348,32.03418,209.9248Z" transform="translate(-1.19922 -0.47335)"/><path d="M75.418,185.51074A19.99512,19.99512,0,0,1,61.28223,219.6416,19.99512,19.99512,0,1,1,75.418,185.51074Zm-14.13574-.75684a14.90479,14.90479,0,1,0,10.53467,25.43945,14.89868,14.89868,0,0,0-10.53467-25.43945Z" transform="translate(-1.19922 -0.47335)"/><path d="M101.05273,180.16406l14.209,39.0625h-5.37109l-5.0293-13.81836H94.50977l-5.00488,13.81836H84.10938l14.209-39.0625Zm1.97754,20.19043-3.34473-9.15527-3.32031,9.15527Z" transform="translate(-1.19922 -0.47335)"/><path d="M131.47266,199.18262a16.93753,16.93753,0,0,1-6.72607-3.96729,8.66867,8.66867,0,0,1-2.57568-6.38428,9.14968,9.14968,0,0,1,15.60059-6.44531,11.20949,11.20949,0,0,1,2.53906,4.66309l-4.58984,1.80664a8.90787,8.90787,0,0,0-1.51367-2.92969,4.14164,4.14164,0,0,0-5.78613.01221,4.11116,4.11116,0,0,0,0,5.79834,13.18063,13.18063,0,0,0,3.71094,2.417,19.21283,19.21283,0,0,1,7.78809,4.6875,11.62123,11.62123,0,0,1,3.58887,8.59375,12.17074,12.17074,0,0,1-20.80078,8.61816,13.66869,13.66869,0,0,1-3.61328-7.88574l4.90723-1.78223q.46362,4.32129,2.27051,6.12793a7.15566,7.15566,0,0,0,10.10742-10.13184A14.83473,14.83473,0,0,0,131.47266,199.18262Z" transform="translate(-1.19922 -0.47335)"/><path d="M160.15918,185.21777v34.00879h-5.07812V185.21777h-9.10645v-5.05371h23.291v5.05371Z" transform="translate(-1.19922 -0.47335)"/><path d="M186.86816,180.16406l14.209,39.0625h-5.37109l-5.0293-13.81836H180.3252l-5.00488,13.81836H169.9248l14.209-39.0625Zm1.97754,20.19043-3.34473-9.15527-3.32031,9.15527Z" transform="translate(-1.19922 -0.47335)"/><path d="M205.96,219.22656v-39.0625h5.05371v33.98438h13.96484v5.07813Z" transform="translate(-1.19922 -0.47335)"/><path d="M253.17676,206.72656v12.5H248.123v-39.0625h11.084a13.48964,13.48964,0,0,1,7.959,3.88184,13.28737,13.28737,0,0,1-9.375,22.68066Zm0-21.48437v16.40625H257.791a8.20314,8.20314,0,0,0,0-16.40625Z" transform="translate(-1.19922 -0.47335)"/><path d="M297.12207,180.16406v5.05371H281.13086v11.93848h15.99121V202.21H281.13086v11.93848h15.99121v5.07813H276.07715v-39.0625Z" transform="translate(-1.19922 -0.47335)"/><path d="M337.35645,185.51074a19.98093,19.98093,0,1,1-14.13574-5.85937A19.26345,19.26345,0,0,1,337.35645,185.51074Zm-14.13574-.75684a14.878,14.878,0,1,0,10.53516,4.35791A14.354,14.354,0,0,0,323.2207,184.75391Z" transform="translate(-1.19922 -0.47335)"/><path d="M355.00781,206.72656v12.5H349.9541v-39.0625h11.084a13.48964,13.48964,0,0,1,7.959,3.88184,13.28737,13.28737,0,0,1-9.375,22.68066Zm0-21.48437v16.40625h4.61426a8.20314,8.20314,0,0,0,0-16.40625Z" transform="translate(-1.19922 -0.47335)"/><path d="M377.9082,219.22656v-39.0625h5.05371v33.98438h13.96484v5.07813Z" transform="translate(-1.19922 -0.47335)"/><path d="M423.83105,180.16406v5.05371H407.83984v11.93848h15.99121V202.21H407.83984v11.93848h15.99121v5.07813H402.78613v-39.0625Z" transform="translate(-1.19922 -0.47335)"/><path d="M440.48145,199.18262a16.93208,16.93208,0,0,1-6.72559-3.96729,8.66719,8.66719,0,0,1-2.57617-6.38428,9.14968,9.14968,0,0,1,15.60059-6.44531,11.20949,11.20949,0,0,1,2.53906,4.66309l-4.58984,1.80664a8.91739,8.91739,0,0,0-1.51367-2.92969,4.14164,4.14164,0,0,0-5.78613.01221,4.11116,4.11116,0,0,0,0,5.79834,13.1735,13.1735,0,0,0,3.71094,2.417,19.21609,19.21609,0,0,1,7.78809,4.6875,11.62123,11.62123,0,0,1,3.58887,8.59375,12.17074,12.17074,0,0,1-20.80078,8.61816,13.66565,13.66565,0,0,1-3.61328-7.88574l4.90723-1.78223q.46289,4.32129,2.27051,6.12793a7.15566,7.15566,0,0,0,10.10742-10.13184A14.83473,14.83473,0,0,0,440.48145,199.18262Z" transform="translate(-1.19922 -0.47335)"/><path d="M85.5791,243.16406v1.8457H73.06934v13.6377H85.5791v1.8457H73.06934v15.4834h-1.8457v-32.8125Z" transform="translate(-1.19922 -0.47335)"/><path d="M93.11572,249.23438a1.743,1.743,0,0,1,.54346,1.292,1.76667,1.76667,0,0,1-.54346,1.3125,1.85684,1.85684,0,0,1-2.60449,0,1.76667,1.76667,0,0,1-.54346-1.3125,1.743,1.743,0,0,1,.54346-1.292,1.85684,1.85684,0,0,1,2.60449,0Zm-.37939,6.60352v20.13867h-1.8457V255.83789Z" transform="translate(-1.19922 -0.47335)"/><path d="M101.14453,260.3291v15.64746h-1.8457V255.83789h1.8457v1.292a8.07591,8.07591,0,0,1,5.86523-2.502,7.75211,7.75211,0,0,1,8.10059,7.875v13.47363h-1.8457V262.667a5.90125,5.90125,0,0,0-1.856-4.37842,6.26383,6.26383,0,0,0-8.7876-.03076A6.92626,6.92626,0,0,0,101.14453,260.3291Z" transform="translate(-1.19922 -0.47335)"/><path d="M125.09766,272.20313A8.87286,8.87286,0,0,0,131.291,274.582a8.97041,8.97041,0,0,0,6.583-2.72754q.34863-.34863.65625-.71777l1.94824.69727a11.64185,11.64185,0,0,1-1.21,1.415,11.25284,11.25284,0,1,1-.98437-16.83691q.49219.41016.98438.90234.18457.18457.34863.36914l-1.39453,1.39453Zm11.77148-14.376a9.30546,9.30546,0,0,0-13.02246,13.02246Z" transform="translate(-1.19922 -0.47335)"/><path d="M175.3623,263.40527H164.001l-4.57324,12.57129H157.459l12.22266-33.57129,12.20215,33.57129h-1.94824Zm-.67676-1.8457-5.00391-13.76074-5.00391,13.76074Z" transform="translate(-1.19922 -0.47335)"/><path d="M185.98535,255.83789h1.8457v3.6709a11.834,11.834,0,0,1,1.333-1.5791,7.67582,7.67582,0,0,1,5.00391-2.56348V257.376a5.68311,5.68311,0,0,0-3.60937,1.94824,8.86843,8.86843,0,0,0-2.72754,6.25488v10.39746h-1.8457Z" transform="translate(-1.19922 -0.47335)"/><path d="M201.96094,255.83789v-8.57227h1.8457v8.57227h4.10156v1.8457h-4.10156v18.293h-1.8457v-18.293h-4.10156v-1.8457Z" transform="translate(-1.19922 -0.47335)"/><path d="M218.36719,265.62012a14.90755,14.90755,0,0,1-3.26074-2.17383,4.64113,4.64113,0,0,1-1.415-3.4043,4.69889,4.69889,0,0,1,1.415-3.43506,4.62448,4.62448,0,0,1,3.4043-1.42529,4.50239,4.50239,0,0,1,3.32227,1.3125,4.07392,4.07392,0,0,1,1.27148,2.93262v.10254l-1.59961.63574a3.97593,3.97593,0,0,0-.97412-2.33789,2.71171,2.71171,0,0,0-2.02-.7793,2.98727,2.98727,0,0,0-2.1123,5.10645,14.38072,14.38072,0,0,0,2.17383,1.55859,17.11739,17.11739,0,0,1,3.73242,2.543,5.97813,5.97813,0,1,1-8.44922,8.45947,5.36407,5.36407,0,0,1-1.74316-3.84521l1.8252-.47168a4.07377,4.07377,0,0,0,1.22021,3.01465,4.14373,4.14373,0,0,0,5.855-5.86523A17.75447,17.75447,0,0,0,218.36719,265.62012Z" transform="translate(-1.19922 -0.47335)"/><path d="M271.25684,271.89551a15.608,15.608,0,0,1-11.17676,4.4707,16.7959,16.7959,0,1,1,11.2998-29.22363l-1.39453,1.27148a14.91474,14.91474,0,1,0-.57422,22.8252V261.23145h1.8457Z" transform="translate(-1.19922 -0.47335)"/><path d="M298.75781,275.97656h-1.8457V271.875a13.80809,13.80809,0,0,1-1.16895,1.374,11.269,11.269,0,1,1,0-15.93457,13.80808,13.80808,0,0,1,1.16895,1.374v-2.85059h1.8457Zm-1.8457-8.85937V263.4668a9.21454,9.21454,0,1,0,0,3.65039Z" transform="translate(-1.19922 -0.47335)"/><path d="M306.75586,243.16406v32.8125h-1.8457v-32.8125Z" transform="translate(-1.19922 -0.47335)"/><path d="M314.75391,243.16406v32.8125h-1.8457v-32.8125Z" transform="translate(-1.19922 -0.47335)"/><path d="M324.74121,272.20313a8.87286,8.87286,0,0,0,6.19336,2.37891,8.97041,8.97041,0,0,0,6.583-2.72754q.34863-.34863.65625-.71777l1.94824.69727a11.64186,11.64186,0,0,1-1.21,1.415,11.25284,11.25284,0,1,1-.98437-16.83691q.49219.41016.98438.90234.18457.18457.34863.36914l-1.39453,1.39453Zm11.77148-14.376a9.30546,9.30546,0,0,0-13.02246,13.02246Z" transform="translate(-1.19922 -0.47335)"/><path d="M345.04395,255.83789h1.8457v3.6709a11.834,11.834,0,0,1,1.333-1.5791,7.67582,7.67582,0,0,1,5.00391-2.56348V257.376a5.68311,5.68311,0,0,0-3.60937,1.94824,8.86843,8.86843,0,0,0-2.72754,6.25488v10.39746h-1.8457Z" transform="translate(-1.19922 -0.47335)"/><path d="M366.90527,274.17188l-4.55273,9.49512h-1.80469l5.43457-11.40234-7.85449-16.42676h2.0918l6.68555,14.4375,6.68555-14.4375h2.07129l-8.75684,18.35449Z" transform="translate(-1.19922 -0.47335)"/><path class="cls-1" d="M303.76,154.98667H149.24671q0-77.25663,0-154.51328l154.51327,0Q303.76,77.73,303.76,154.98667ZM283.75319,34.87381c-.34475-3.31466-2.93385-6.97868-6.49233-9.12579-2.49314-1.50432-4.8483-1.81842-7.40767-.12852-5.205,3.43677-10.51044,6.722-15.6994,10.18228-2.01132,1.34125-3.77163,1.90456-6.06966.49652a17.81039,17.81039,0,0,0-5.49672-2.03682,4.53417,4.53417,0,0,1-3.80269-4.17521c-.75507-4.55035-1.353-9.13249-2.28988-13.64461-.49225-2.37078-.96452-5.192-2.501-6.80429-2.95514-3.10091-7.15454-2.22016-10.92627-1.55109-2.99384.53108-3.86641,3.20254-4.37348,5.74666-1.068,5.35842-1.99989,10.74645-2.8598,16.1427-.37765,2.3699-1.35218,3.83643-3.85757,4.39388a21.13488,21.13488,0,0,0-5.72006,2.19074c-2.22458,1.25516-4.02425.7745-5.93475-.52824-4.8724-3.3224-9.85717-6.4856-14.64609-9.92272-2.8773-2.0651-5.74582-2.16691-8.21139.01106a34.36676,34.36676,0,0,0-5.935,7.19283c-1.16464,1.81-.67088,3.77807.891,5.6068,2.99354,3.50493,5.64588,7.29882,8.56672,10.869,3.02269,3.69464,4.23715,7.40454,1.42127,11.85817-1.041,1.64641-2.02683,2.727-4.02873,3.064-6.48343,1.09142-12.93974,2.34459-19.40426,3.54747-3.48106.64772-5.54027,2.9651-6.00011,6.71049-.6,4.88711,1.1446,9.47139,4.13061,10.8041a6.21453,6.21453,0,0,0,1.45541.46675c5.97309,1.02883,11.94344,2.07617,17.9279,3.03516,2.65677.42573,4.64124,1.57029,5.56466,4.22876a21.59063,21.59063,0,0,0,1.19864,2.83218,5.70425,5.70425,0,0,1-.62645,6.68052c-3.46778,4.44729-6.98009,8.87028-10.2028,13.49241-1.09347,1.5683-2.1971,3.86106-1.87822,5.556,1.38648,7.36984,9.58458,10.43837,14.49122,6.82767,3.50531-2.57948,7.32487-4.72846,10.87528-7.251,4.40547-3.13,8.67336-4.38353,13.9084-1.47655,2.53411,1.40719,4.04255,2.83164,4.47927,5.60885.8625,5.48477,1.80261,10.95749,2.73415,16.43119.56339,3.31052,2.34613,5.291,5.66081,5.7291a39.16455,39.16455,0,0,0,7.1549.11483c3.41179-.18,5.92625-2.02022,6.68189-5.344a116.74251,116.74251,0,0,0,2.57188-14.61323c.423-4.39344,1.7332-7.56513,6.51888-8.3176a4.907,4.907,0,0,0,1.66111-.665c2.51835-1.48333,4.82708-1.10544,7.17471.49982,4.5138,3.08644,9.08908,6.08374,13.66259,9.08183,3.94954,2.58908,7.51743,2.58106,10.953.04946,4.77136-3.51594,5.292-8.64855,1.64729-13.21569-3.19391-4.00227-6.022-8.29429-9.12875-12.3691-1.83275-2.40387-2.5576-4.69288-.55316-7.36243a9.48431,9.48431,0,0,0,1.22083-2.81341,5.06659,5.06659,0,0,1,4.61084-3.80693c4.49058-.56,8.96454-1.25683,13.44047-1.92974,9.40018-1.41322,10.75009-3.08271,10.439-12.50312-.09175-2.7792-1.23356-5.00859-3.77517-5.8498a91.16034,91.16034,0,0,0-11.131-2.71554c-3.34646-.6557-6.76165-.95353-10.12736-1.52256a4.9281,4.9281,0,0,1-2.52048-1.12881,9.5652,9.5652,0,0,1-.71857-12.67614c2.99753-3.84052,6.07042-7.62464,8.97433-11.53444A30.07933,30.07933,0,0,0,283.75319,34.87381Z" transform="translate(-1.19922 -0.47335)"/><path d="M283.75319,34.87381a30.07933,30.07933,0,0,1-2.3017,4.4388c-2.90391,3.9098-5.9768,7.69392-8.97433,11.53444a9.5652,9.5652,0,0,0,.71857,12.67614,4.9281,4.9281,0,0,0,2.52048,1.12881c3.36571.569,6.7809.86686,10.12736,1.52256a91.16034,91.16034,0,0,1,11.131,2.71554c2.5416.84122,3.68341,3.0706,3.77517,5.8498.31107,9.42041-1.03884,11.08991-10.439,12.50312-4.47592.6729-8.94989,1.36972-13.44047,1.92974a5.06659,5.06659,0,0,0-4.61084,3.80693,9.48431,9.48431,0,0,1-1.22083,2.81341c-2.00445,2.66955-1.2796,4.95856.55316,7.36243,3.10671,4.07482,5.93485,8.36683,9.12875,12.3691,3.64467,4.56714,3.12407,9.69974-1.64729,13.21569-3.43556,2.53161-7.00345,2.53963-10.953-.04946-4.5735-2.99809-9.14879-5.99539-13.66259-9.08183-2.34763-1.60526-4.65637-1.98315-7.17471-.49982a4.907,4.907,0,0,1-1.66111.665c-4.78567.75246-6.09584,3.92416-6.51888,8.3176a116.74251,116.74251,0,0,1-2.57188,14.61323c-.75563,3.32379-3.2701,5.164-6.68189,5.344a39.16455,39.16455,0,0,1-7.1549-.11483c-3.31468-.43812-5.09743-2.41858-5.66081-5.7291-.93154-5.4737-1.87165-10.94642-2.73415-16.43119-.43672-2.77721-1.94516-4.20166-4.47927-5.60885-5.235-2.907-9.50293-1.65347-13.9084,1.47655-3.55041,2.52253-7.37,4.67151-10.87528,7.251-4.90664,3.6107-13.10474.54217-14.49122-6.82767-.31887-1.695.78475-3.98773,1.87822-5.556,3.22271-4.62213,6.735-9.04513,10.2028-13.49241a5.70425,5.70425,0,0,0,.62645-6.68052,21.59063,21.59063,0,0,1-1.19864-2.83218c-.92343-2.65847-2.90789-3.803-5.56466-4.22876-5.98445-.959-11.95481-2.00633-17.9279-3.03516a6.21453,6.21453,0,0,1-1.45541-.46675c-2.986-1.33271-4.73063-5.917-4.13061-10.8041.45984-3.74539,2.51905-6.06277,6.00011-6.71049,6.46452-1.20288,12.92083-2.456,19.40426-3.54747,2.0019-.337,2.98777-1.41756,4.02873-3.064,2.81588-4.45363,1.60141-8.16353-1.42127-11.85817-2.92084-3.57016-5.57319-7.364-8.56672-10.869-1.56191-1.82873-2.05568-3.7968-.891-5.6068a34.36676,34.36676,0,0,1,5.935-7.19283c2.46557-2.178,5.33409-2.07616,8.21139-.01106,4.78893,3.43712,9.7737,6.60032,14.64609,9.92272,1.9105,1.30274,3.71018,1.7834,5.93475.52824a21.13488,21.13488,0,0,1,5.72006-2.19074c2.50539-.55744,3.47993-2.024,3.85757-4.39388.85991-5.39625,1.79179-10.78429,2.8598-16.1427.50707-2.54413,1.37965-5.21558,4.37348-5.74666,3.77173-.66907,7.97113-1.54982,10.92627,1.55109,1.53647,1.61226,2.00874,4.43351,2.501,6.80429.93683,4.51212,1.53481,9.09427,2.28988,13.64461a4.53417,4.53417,0,0,0,3.80269,4.17521,17.81039,17.81039,0,0,1,5.49672,2.03682c2.298,1.408,4.05835.84473,6.06966-.49652,5.189-3.46028,10.49438-6.74551,15.6994-10.18228,2.55937-1.6899,4.91453-1.37581,7.40767.12852C280.81934,27.89513,283.40844,31.55914,283.75319,34.87381ZM281.65635,76.368l3.6864.402c-7.53364,2.92876-10.79437,6.065-10.424,10.52039,3.79152-1.282,7.60322-2.45515,11.30505-3.90823A4.5001,4.5001,0,0,0,288.207,80.8856c2.06488-5.37789.16944-9.25929-5.23306-11.16529-2.66586-.94052-5.28632-2.00981-8.08315-3.08049.27255,5.01592,3.143,7.71189,6.84039,9.81047l-6.88089-4.03182v9.73006c2.05118-1.49012,4.02721-2.87772,5.93706-4.35109A4.77836,4.77836,0,0,0,281.65635,76.368ZM257.14888,86.67951c6.02871.02355,8.30935-1.39685,9.42786-6.58066a32.58255,32.58255,0,0,0,.64328-7.37849,9.177,9.177,0,0,0-6.40514-9.00646,44.342,44.342,0,0,0-20.63505-2.80574c-4.05253.46377-7.73206,1.70381-9.9377,5.8085-1.45557,2.70883-4.19883,2.47418-5.84109-.40528-1.63937-2.87437-4.14354-4.16058-7.12759-4.93213-5.82243-1.50542-11.5445-.43513-17.26113.66456-10.8025,2.078-14.12733,7.10631-11.86735,17.89611,1.01348,4.83865,3.3472,6.86071,8.20852,6.59533,4.60131-.2512,9.176-1.0065,13.77747-1.23316,3.49969-.17239,5.42034-1.8063,6.44767-5.04438.63791-2.01064,1.873-3.76313,4.28453-3.87467,2.4407-.11288,3.55183-1.55175,4.42416-3.60674.376-.88563,1.37835-2.03483,2.14249-2.07045.70018-.03263,1.51721,1.22571,2.18451,1.99988.9119,1.058,1.66435,3.07707,2.601,3.14769,4.0971.30894,5.74368,2.85611,6.87009,6.22931a3.84693,3.84693,0,0,0,3.57619,2.7884C247.49938,85.39347,252.32088,86.06659,257.14888,86.67951ZM227.97257,61.21122l.73022.22234a22.27174,22.27174,0,0,0,1.1401-2.38255,77.70938,77.70938,0,0,0,2.75973-8.50828c.823-3.73366,3.64024-4.34761,6.63081-4.94935,2.87086-.57765,3.93239,1.33143,4.85231,3.472.03626.08437.29851.07163.45664.09843,1.63942-3.13231,2.40654-3.38819,6.09438-2.5166,4.4422,1.04988,7.6477,3.95287,10.93161,6.84563a49.65246,49.65246,0,0,0,5.27405,3.6047l.79-.98358c-3.7756-3.46892-7.21286-7.435-11.40693-10.289-6.12583-4.16842-13.4003-4.15957-20.54117-3.6592-2.29618.1609-4.65,1.19024-5.16346,3.58351C229.42637,50.85072,228.7942,56.05129,227.97257,61.21122Zm-39.99-4.72991.4346.67229c1.75767-1.20185,3.5035-2.42149,5.2756-3.60168,3.23885-2.157,6.42175-4.41357,9.77977-6.36779a6.17823,6.17823,0,0,1,4.1981-.75036c1.22084.3115,2.16134,1.72173,2.81889,2.295,1.433-1.00147,2.83268-2.7448,4.42541-2.94387,4.14357-.51791,6.48064,1.45937,7.66609,5.48847.67492,2.29391,1.3705,4.58428,2.153,6.84291a34.92725,34.92725,0,0,0,1.50911,3.27748l.6922-.2348c-.71953-4.95474-1.34416-9.926-2.20271-14.85655a4.44154,4.44154,0,0,0-4.12989-3.70876,81.98206,81.98206,0,0,0-11.20282-.0789C199.645,43.13087,193.4915,49.35654,187.98253,56.48132Zm29.15653-22.29617c6.63494-.70868,9.69037-4.40782,10.55005-10.58529,1.25727,5.80073,3.82266,9.99928,10.54334,10.69873-.71056-1.76979-1.27061-3.0777-1.76133-4.41112-.50036-1.35963-.9889-2.72834-1.38441-4.121-1.343-4.72889-4.0221-6.40759-8.92861-5.506-2.14914.3949-4.1592.97176-5.02647,3.36181C219.916,26.97234,218.61581,30.29174,217.13906,34.18515Zm9.62159,67.32184,0,.097c-2.73556,0-5.48076-.144-8.20411.03833-3.05036.20427-4.40513,1.89846-4.29093,4.93826.11186,2.97777,1.34823,5.376,4.14973,6.52926a21.43425,21.43425,0,0,0,6.13721,1.60819c4.35677.38871,8.752.39119,12.67411-2.04075,2.40493-1.49119,4.06313-5.43093,3.29308-7.80208-.9593-2.95384-3.60738-3.15241-6.06684-3.32774C231.9008,101.36558,229.32569,101.507,226.76064,101.507Zm-9.60851,21.4322c1.01256,3.05,2.16335,6.05352,2.98693,9.14421.65453,2.45624,2.02412,3.95935,4.49073,4.24208,3.1383.35973,6.79341,1.0442,8.64185-2.16378,1.99362-3.45994,3.08271-7.44109,4.6943-11.51847-6.68466.87442-9.82115,4.6742-10.63722,10.81165C224.80829,125.71094,221.68857,122.46859,217.15213,122.93919Zm36.92162-83.99845c5.27,4.0961,10.0548,3.38953,14.67863-.53752-.99667,2.72917-2.26734,5.1618-2.72037,7.7382a7.50929,7.50929,0,0,0,2.61408,7.35433c1.38417-2.79824,2.56578-5.433,3.9601-7.94989,2.267-4.09222,2.07351-5.89346-1.45317-9.153-1.63478-1.511-3.429-3.25671-5.86181-2.34023C261.58065,35.45045,258.00473,37.20573,254.07375,38.94074Zm-68.056,78.19844c4.0066-8.124,4.09251-12.0655.51166-14.68662-1.48136,2.95411-2.82947,5.98993-4.49048,8.84365-1.303,2.23857-1.26657,4.22182.35088,6.12022,1.9324,2.26806,3.98664,5.17684,7.2969,4.25143,3.92591-1.09752,7.5775-3.1763,11.47569-4.88583C196.83605,112.86947,193.411,112.96333,186.01775,117.13918Zm-5.3007-50.3288c-3.59709,1.23477-6.61212,2.41654-9.71461,3.28629-2.30376.64584-3.83388,1.81476-4.2293,4.21482-.48,2.91336-1.10248,6.43262,1.52648,8.116,3.54046,2.26708,7.78275,3.43815,12.283,5.31253-.96121-6.90756-4.762-9.81224-10.7479-10.68925C175.47179,75.72771,179.792,73.333,180.71705,66.81038Zm5.54147-12.85706c4.28157-5.37375,3.7318-10.25919-.30238-15.10636,8.07286,3.74414,11.89388,3.8433,14.84027.33178-2.4656-1.16174-4.95333-2.25319-7.36766-3.48816-5.15137-2.635-8.14532-1.90106-11.19126,3.19246a5.75037,5.75037,0,0,0-.74814,4.23547C182.75454,46.69346,184.51461,50.09327,186.25852,53.95332Zm82.72254,62.8302c-4.89-3.39322-9.78629-4.29845-15.11348-.48886,3.51035,1.72959,6.70093,3.14276,9.73063,4.84265,2.616,1.46778,4.62309.50226,6.50335-1.17352,2.18563-1.94793,4.6636-4.04931,3.45613-7.37455-1.29733-3.57271-3.14066-6.94715-4.76873-10.45768C264.92948,106.1393,265.00965,109.89786,268.98106,116.78351Zm10.94516-81.06643c-.04462-3.01311-4.6152-7.76718-6.99645-7.5908a4.06567,4.06567,0,0,0-2.65754,1.51362c-.32679.446.07729,1.83687.59027,2.41262a50.04311,50.04311,0,0,0,5.12289,4.9761,2.864,2.864,0,0,0,2.45792.56892C279.21536,37.22363,279.63419,36.12044,279.92622,35.71708Zm-.10892,84.11107c-.27943-.364-.7231-1.43047-1.49936-1.80192a2.819,2.819,0,0,0-2.49647.403,51.48408,51.48408,0,0,0-5.253,5.22664,2.82491,2.82491,0,0,0-.53964,2.45969,3.23268,3.23268,0,0,0,2.23219,1.4171C274.68583,127.86844,279.83034,122.93164,279.8173,119.82816Zm-52.46922,19.49178-.00016.04714a12.26409,12.26409,0,0,0-3.31175.066,11.53057,11.53057,0,0,0-2.74629,1.71638c.71375,1.04061,1.2878,2.81409,2.16794,2.98187a23.33711,23.33711,0,0,0,7.559.19259c.877-.12512,1.51334-1.93772,2.25954-2.97993a13.46391,13.46391,0,0,0-2.87613-1.956A9.43426,9.43426,0,0,0,227.34808,139.31993ZM297.186,77.10843c-.17594-1.40773.02663-2.81823-.56364-3.69493a4.81549,4.81549,0,0,0-3.1043-1.94114c-.52175-.056-1.63943,1.68018-1.788,2.7053a23.13462,23.13462,0,0,0-.01877,6.13125c.12045.9619,1.14812,2.6116,1.62826,2.56427a4.31537,4.31537,0,0,0,3.00542-1.75432C297.01924,79.94037,296.96164,78.34315,297.186,77.10843Zm-69.55777-59.5a21.354,21.354,0,0,0,3.79976-.3506c.83938-.2226,2.12027-.9365,2.16382-1.50989a3.83635,3.83635,0,0,0-1.20852-2.78369c-1.70749-1.48948-7.26362-1.66437-9.00364-.25444a4.01943,4.01943,0,0,0-1.41829,2.93c.0492.642,1.45658,1.3938,2.38652,1.69684A13.62072,13.62072,0,0,0,227.62824,17.60846ZM183.12375,127.74372c.34322-.26123,1.42154-.70048,1.78115-1.47391a2.82162,2.82162,0,0,0-.47308-2.49276,56.03758,56.03758,0,0,0-5.313-5.14725c-.531-.45653-1.77942-.8032-2.20007-.5025a3.8433,3.8433,0,0,0-1.49242,2.42626C175.17755,122.99349,180.03985,127.81575,183.12375,127.74372ZM163.69192,77.12949l-.06474-.00022a16.0713,16.0713,0,0,0-.06417-3.54573c-.19689-.8513-.992-2.21832-1.49571-2.2073-1.02236.02237-2.80747.69979-2.90569,1.32339a34.36359,34.36359,0,0,0-.35566,8.41254c.06444.70427,2.02353,1.57023,3.17693,1.68006.48252.04594,1.34159-1.62187,1.64843-2.62685A10.79463,10.79463,0,0,0,163.69192,77.12949Zm11.54889-41.31887c.24389.35449.63191,1.50892,1.38162,1.83712a3.0915,3.0915,0,0,0,2.66989-.48251,49.89337,49.89337,0,0,0,5.08873-5.01543c.48664-.54189.93481-1.7604.65728-2.20349a3.85261,3.85261,0,0,0-2.36209-1.6323C180.33264,27.94347,175.27444,32.75157,175.24081,35.81063Zm64.88876,82.77995c.619-.45389,1.47319-.77637,1.81381-1.38585a31.383,31.383,0,0,0,2.94636-6.12448c.94419-3.16347.27208-6.95844,3.88727-9.16538h-8.00029C244.70145,107.87025,243.54525,113.16657,240.12957,118.59057Zm-25.83735.1118.7698-.456c-4.08027-5.14727-4.95705-10.5242-1.11731-16.24928h-7.95114l-.4713.52975c3.70873,1.41887,3.59378,4.56074,4.07437,7.50362a16.62946,16.62946,0,0,0,1.54226,5.09455A19.80311,19.80311,0,0,0,214.29222,118.70237Zm58.57244-35.92255c-1.70988,4.10475-3.98212,6.48249-7.74421,7.43288-3.63551.91844-6.8329.18206-10.1211-2.4894l2.6191,6.43964c2.18787-.59794,4.36435-1.38742,6.61012-1.7682C269.8352,91.44411,272.2174,89.08859,272.86466,82.77982Zm-90.13078,2.32531c.80589,4.70035,2.82166,6.54921,7.34121,7.40722,2.546.48333,5.04124,1.23406,7.47771,1.84391l2.39042-5.63306C191.16774,92.105,188.38313,91.54986,182.73388,85.10514Zm6.53,28.56708,6.93-.64855-6.07034-6.565Zm75.885-7.797-7.33945,6.8998,7.951.8812C265.55592,111.05435,265.34235,108.3371,265.14884,105.87518Zm-75.17267-56.126,7.43647-7.02908-7.97856-.78587Zm37.17592,79.29635,5.30177-6.22457H222.12Zm31.6364-86.4482,6.21839,7.09518c.33132-2.85339.63653-5.48186.90632-7.80532ZM180.49129,72.011l-6.24482,4.8692,6.24482,5.22137Zm52.05439-37.97775-4.73149-6.05662-4.87334,6.05662ZM194.86418,54.6002l14.31791-2.84761C205.865,49.18685,198.27293,50.72358,194.86418,54.6002Zm51.00038-2.984,14.63255,2.85342C256.0291,50.42862,249.15551,49.14009,245.86456,51.61621ZM222.62069,37.38379c1.7461,1.63906,3.27718,4.21415,4.89241,4.26806,1.57187.05246,3.22991-2.47713,5.3087-4.26806ZM236.732,84.37912c-.80392-2.54024-1.69611-4.75176-4.25236-4.39193-1.19691.16848-2.15794,2.01251-3.22588,3.09715l.53574.81847Zm-11.60669-.40592.26313-.6847c-1.06023-1.1718-.67465-3.63442-3.24722-3.424-2.39246.19568-3.36289,1.922-3.85376,4.424Zm-2.50016,8.414a9.58831,9.58831,0,0,0,2.76057-.243c.59424-.22934.95355-1.06741,1.41767-1.63391-.551-.43949-1.07569-1.20676-1.65817-1.25346a13.88052,13.88052,0,0,0-4.28605.26826c-.61121.14632-1.02309,1.12534-1.52544,1.72637a10.12131,10.12131,0,0,0,1.78492,1.17713A3.79,3.79,0,0,0,222.62512,92.38719Zm3.88587.89415c-2.00942.16248-3.94492.2226-5.8386.53567-.51322.08485-.9.93433-1.34488,1.43286.53876.38359,1.03939,1.007,1.62435,1.1,1.15919.18435,2.37215-.00258,3.5499.1054C226.7104,96.65782,227.21357,95.63576,226.511,93.28134Zm5.80891-1.001a3.38994,3.38994,0,0,0,1.25647-.027,18.66384,18.66384,0,0,0,2.02932-1.17822c-.59141-.60806-1.102-1.59784-1.79127-1.74369a14.60483,14.60483,0,0,0-4.29282-.09032c-.48676.04444-1.32052.75808-1.28389,1.0866a2.192,2.192,0,0,0,1.07319,1.60659A12.75616,12.75616,0,0,0,232.3199,92.28031Zm-.33662,4.07758-.00014.07454a5.24252,5.24252,0,0,0,1.76129.05733,9.22993,9.22993,0,0,0,1.86732-1.10193c-.55439-.569-1.02258-1.46326-1.68148-1.63785a11.29129,11.29129,0,0,0-4.01986-.30976c-.63576.06808-1.1869.92659-1.77635,1.42714.522.49685.96611,1.20164,1.58707,1.43408A6.8109,6.8109,0,0,0,231.98328,96.35789Zm-17.747.49488-.00012-.04519a5.46569,5.46569,0,0,0,2.03035-.05113,8.39619,8.39619,0,0,0,1.83942-1.5097c-.58846-.432-1.13957-1.15126-1.77348-1.23368a9.19466,9.19466,0,0,0-3.55826.20372c-.70081.19384-1.224,1.02993-1.82686,1.57777a18.47223,18.47223,0,0,0,2.01549,1.03311A3.81594,3.81594,0,0,0,214.23632,96.85277Zm26.74262.36552,2.98022-1.60875c-1.11073-.49976-2.20686-1.35744-3.3361-1.4035-1.251-.051-3.49933-1.46943-3.70159,1.00459C236.71043,97.79186,239.20022,96.30947,240.97894,97.21829Zm-2.52785-7.41572-1.65727,1.17958c.717.62661,1.34266,1.552,2.17361,1.80617a9.09085,9.09085,0,0,0,3.554.13658c.52232-.0571.98251-.68251,1.47089-1.05-.423-.53141-.75314-1.36808-1.28826-1.53086A26.67494,26.67494,0,0,0,238.45109,89.80257Zm-24.15723,3.18134a7.71188,7.71188,0,0,0,2.49066-.29831c.6-.2626.93375-1.13365,1.38608-1.7337-.5361-.37465-1.06582-1.05342-1.60956-1.06484a16.96566,16.96566,0,0,0-4.2635.44053,1.943,1.943,0,0,0-1.16593,1.4764c.01234.43211.83938.96044,1.40938,1.21708C212.95336,93.20675,213.53465,93.01723,214.29386,92.98391Zm18.59687-38.68648,10.05883-2.52494C239.07292,49.84106,235.24646,50.81278,232.89073,54.29743Zm-10.81.01865c-2.51664-3.62367-7.29192-4.68125-9.61629-2.23924ZM225.4612,76.984c.57692,2.40174,1.08418,4.51343,1.59143,6.62514l.94715-.01592c.48806-2.14154.97614-4.28308,1.50628-6.60922ZM252.28736,93.7486c-1.40009-2.75159-3.70725-2.90918-5.985-3.00253-.35361-.01448-1.02365.67056-1.03145,1.04294-.00945.45033.4774,1.256.84133,1.31212C248.15528,93.41617,250.226,93.55176,252.28736,93.7486ZM209.3676,90.923c-3.66369.05257-5.5747.76764-6.57183,2.45908C207.7412,94.48781,210.0173,93.63613,209.3676,90.923Zm43.40233,4.12048c-2.35289-.16748-4.271-.36449-6.19165-.39513-.44044-.007-.97542.49163-1.291.89514-.117.1497.17231.81565.44567,1.03759C246.876,97.50907,251.34146,96.73972,252.76992,95.04347ZM202.261,95.01207c1.42872,1.69374,5.58426,2.59918,6.7734,1.76351a1.48019,1.48019,0,0,0,.47886-1.27386,1.37453,1.37453,0,0,0-1.05669-.77971C206.54474,94.73957,204.63409,94.886,202.261,95.01207Zm54.045,4.27361-3.20793,2.25822,4.36306,2.50768Zm-58.79114,4.67747,4.42551-2.596-3.22689-1.97768Z" transform="translate(-1.19922 -0.47335)"/><path class="cls-1" d="M257.14888,86.67951c-4.828-.61292-9.64949-1.286-14.48728-1.80838a3.84693,3.84693,0,0,1-3.57619-2.7884c-1.12641-3.37319-2.773-5.92037-6.87009-6.22931-.93666-.07062-1.68911-2.08972-2.601-3.14769-.6673-.77417-1.48433-2.03251-2.18451-1.99988-.76413.03562-1.76653,1.18482-2.14249,2.07045-.87234,2.055-1.98346,3.49386-4.42416,3.60674-2.41148.11154-3.64661,1.864-4.28453,3.87467-1.02733,3.23807-2.948,4.872-6.44767,5.04438-4.6015.22665-9.17616.982-13.77747,1.23316-4.86132.26538-7.195-1.75668-8.20852-6.59533-2.26-10.7898,1.06486-15.81807,11.86735-17.89611,5.71663-1.09968,11.4387-2.17,17.26113-.66456,2.98406.77155,5.48822,2.05776,7.12759,4.93213,1.64226,2.87946,4.38552,3.1141,5.84109.40528,2.20564-4.10469,5.88518-5.34473,9.9377-5.8085a44.342,44.342,0,0,1,20.63505,2.80574A9.177,9.177,0,0,1,267.22,72.72036a32.58255,32.58255,0,0,1-.64328,7.37849C265.45823,85.28266,263.17759,86.70305,257.14888,86.67951ZM222.47853,72.15832c-4.30326-2.05022-8.22224-3.41862-11.58186-5.63493-5.03758-3.32325-10.504-2.05515-13.6654,3.38865-1.58043,2.72145-3.441,5.28394-5.24426,7.87a23.90372,23.90372,0,0,1-2.37616,2.44819,13.37341,13.37341,0,0,0,1.92362-.01087,21.20924,21.20924,0,0,1,11.10262.1646,7.88551,7.88551,0,0,0,7.5132-1.50125C213.70889,75.9684,217.28832,73.10545,222.47853,72.15832Zm42.31412,7.99179c-2.50667-3.81247-4.90015-7.45215-7.293-11.09226-3.23653-4.92365-7.76237-5.86664-12.805-2.85226-2.33086,1.39335-4.83158,2.509-7.28566,3.68728-1.39332.669-2.848,1.21017-4.4227,1.87084a63.70774,63.70774,0,0,1,6.25339,2.83547,58.69787,58.69787,0,0,1,5.5913,4.04678c2.41253,1.8302,5.27331,2.68914,7.96007,1.57225,3.34828-1.39189,6.516-.78617,9.7935-.40268C263.30506,79.89983,264.01993,80.03169,264.79265,80.15011Z" transform="translate(-1.19922 -0.47335)"/><path class="cls-1" d="M227.97257,61.21122c.82163-5.15993,1.4538-10.3605,2.54831-15.46189.51347-2.39327,2.86728-3.4226,5.16346-3.58351,7.14088-.50038,14.41534-.50923,20.54117,3.6592,4.19407,2.85393,7.63134,6.82005,11.40693,10.289l-.79.98358a49.65246,49.65246,0,0,1-5.27405-3.6047c-3.28391-2.89276-6.48941-5.79575-10.93161-6.84563-3.68784-.87158-4.455-.6157-6.095,2.51946-.15753-.02966-.41979-.01692-.456-.10129-.91991-2.1406-1.98144-4.04969-4.85231-3.472-2.99056.60174-5.80777,1.21569-6.63081,4.94935a77.70938,77.70938,0,0,1-2.75973,8.50828,22.27174,22.27174,0,0,1-1.1401,2.38255Z" transform="translate(-1.19922 -0.47335)"/><path class="cls-1" d="M187.98253,56.48132c5.509-7.12477,11.66244-13.35045,21.41735-13.96651a81.98206,81.98206,0,0,1,11.20282.0789,4.44154,4.44154,0,0,1,4.12989,3.70876c.85855,4.93054,1.48319,9.90181,2.20271,14.85655l-.6922.2348a34.92725,34.92725,0,0,1-1.50911-3.27748c-.78249-2.25863-1.47807-4.549-2.153-6.84291-1.18545-4.0291-3.52252-6.00638-7.66609-5.48847-1.59273.19908-2.99244,1.9424-4.42541,2.94387-.65755-.57331-1.598-1.98353-2.81889-2.295a6.17823,6.17823,0,0,0-4.1981.75036c-3.358,1.95422-6.54092,4.21076-9.77977,6.36779-1.7721,1.18019-3.51793,2.39983-5.2756,3.60168Z" transform="translate(-1.19922 -0.47335)"/><path class="cls-1" d="M217.13906,34.18515c1.47676-3.89341,2.77694-7.2128,3.99257-10.56287.86727-2.39,2.87733-2.9669,5.02647-3.36181,4.90651-.90157,7.58558.77713,8.92861,5.506.39551,1.39263.884,2.76134,1.38441,4.121.49073,1.33342,1.05077,2.64134,1.76133,4.41112-6.72068-.69945-9.28607-4.898-10.54334-10.69873C226.82942,29.77732,223.774,33.47646,217.13906,34.18515Z" transform="translate(-1.19922 -0.47335)"/><path class="cls-1" d="M226.76064,101.507c2.565,0,5.14016-.14141,7.69223.04053,2.45946.17533,5.10754.3739,6.06684,3.32774.77005,2.37114-.88814,6.31088-3.29308,7.80208-3.92207,2.43193-8.31734,2.42946-12.67411,2.04075a21.43425,21.43425,0,0,1-6.13721-1.60819c-2.8015-1.15329-4.03787-3.55149-4.14973-6.52926-.1142-3.0398,1.24057-4.734,4.29093-4.93826,2.72335-.18236,5.46855-.03833,8.20411-.03833Zm.97279,2.974-.00017-.03349c-2.04374,0-4.089-.04882-6.13072.01536-1.64842.05182-3.00842.63659-3.45077,2.44993a3.86465,3.86465,0,0,0,1.90668,4.36369c3.073,2.10192,11.86772,2.29014,14.74633-.06974a5.80949,5.80949,0,0,0,1.62849-4.37542c-.0614-.8529-1.899-1.99464-3.0991-2.251A27.29448,27.29448,0,0,0,227.73343,104.481Z" transform="translate(-1.19922 -0.47335)"/><path class="cls-1" d="M281.73142,76.449c-3.69762-2.09732-6.56809-4.79329-6.84064-9.80921,2.79683,1.07067,5.41729,2.14,8.08315,3.08049,5.4025,1.906,7.29794,5.7874,5.23306,11.16529a4.5001,4.5001,0,0,1-1.98315,2.49659c-3.70183,1.45308-7.51353,2.62624-11.30505,3.90823-.37041-4.4554,2.89033-7.59163,10.424-10.52039l-3.6864-.402Z" transform="translate(-1.19922 -0.47335)"/><path class="cls-1" d="M217.15213,122.93919c4.53644-.4706,7.65616,2.77175,10.1766,10.5157.81607-6.13744,3.95256-9.93723,10.63722-10.81165-1.61159,4.07738-2.70068,8.05853-4.6943,11.51847-1.84844,3.208-5.50355,2.52351-8.64185,2.16378-2.46661-.28273-3.8362-1.78584-4.49073-4.24208C219.31547,128.99271,218.16469,125.98921,217.15213,122.93919Z" transform="translate(-1.19922 -0.47335)"/><path class="cls-1" d="M254.07375,38.94074c3.931-1.735,7.5069-3.49029,11.21746-4.88815,2.43277-.91648,4.227.82927,5.86181,2.34023,3.52668,3.25958,3.72016,5.06082,1.45317,9.153-1.39432,2.51691-2.57593,5.15165-3.9601,7.94989a7.50929,7.50929,0,0,1-2.61408-7.35433c.453-2.5764,1.7237-5.009,2.72037-7.7382C264.12855,42.33027,259.3437,43.03684,254.07375,38.94074Z" transform="translate(-1.19922 -0.47335)"/><path class="cls-1" d="M186.01775,117.13918c7.39328-4.17585,10.8183-4.26971,15.14465-.35715-3.89819,1.70953-7.54978,3.78831-11.47569,4.88583-3.31026.9254-5.3645-1.98338-7.2969-4.25143-1.61745-1.8984-1.65384-3.88164-.35088-6.12022,1.661-2.85372,3.00911-5.88954,4.49048-8.84365C190.11027,105.07368,190.02435,109.01514,186.01775,117.13918Z" transform="translate(-1.19922 -0.47335)"/><path class="cls-1" d="M180.71705,66.81038c-.92508,6.52258-5.24526,8.91733-10.88228,10.24042,5.98593.877,9.78668,3.78169,10.7479,10.68925-4.5003-1.87438-8.74259-3.04544-12.283-5.31253-2.629-1.68341-2.00645-5.20268-1.52648-8.116.39541-2.40006,1.92554-3.569,4.2293-4.21482C174.10493,69.22692,177.12,68.04515,180.71705,66.81038Z" transform="translate(-1.19922 -0.47335)"/><path class="cls-1" d="M186.25852,53.95332c-1.74391-3.86-3.504-7.25985-4.76917-10.8348a5.75037,5.75037,0,0,1,.74814-4.23547c3.04594-5.09351,6.03989-5.82748,11.19126-3.19246,2.41433,1.235,4.90206,2.32642,7.36766,3.48816C197.85,42.69026,194.029,42.5911,185.95615,38.847,189.99033,43.69412,190.54009,48.57957,186.25852,53.95332Z" transform="translate(-1.19922 -0.47335)"/><path class="cls-1" d="M268.98106,116.78351c-3.97141-6.88565-4.05159-10.64421-.1921-14.652,1.62807,3.51053,3.4714,6.885,4.76873,10.45768,1.20747,3.32524-1.2705,5.42662-3.45613,7.37455-1.88027,1.67578-3.88733,2.64131-6.50335,1.17352-3.0297-1.69989-6.22027-3.11305-9.73063-4.84265C259.19477,112.48507,264.09107,113.39029,268.98106,116.78351Z" transform="translate(-1.19922 -0.47335)"/><path class="cls-1" d="M279.92622,35.71708c-.292.40336-.71086,1.50655-1.4829,1.88045a2.864,2.864,0,0,1-2.45792-.56892,50.04311,50.04311,0,0,1-5.12289-4.9761c-.513-.57575-.91706-1.96658-.59027-2.41262a4.06567,4.06567,0,0,1,2.65754-1.51362C275.311,27.9499,279.8816,32.704,279.92622,35.71708Z" transform="translate(-1.19922 -0.47335)"/><path class="cls-1" d="M279.8173,119.82816c.013,3.10348-5.13148,8.04028-7.55625,7.7045a3.23268,3.23268,0,0,1-2.23219-1.4171,2.82491,2.82491,0,0,1,.53964-2.45969,51.48408,51.48408,0,0,1,5.253-5.22664,2.819,2.819,0,0,1,2.49647-.403C279.0942,118.39769,279.53787,119.46412,279.8173,119.82816Z" transform="translate(-1.19922 -0.47335)"/><path class="cls-1" d="M227.34808,139.31993a9.43426,9.43426,0,0,1,3.05215.06808,13.46415,13.46415,0,0,1,2.87614,1.956c-.74621,1.04221-1.38251,2.85481-2.25955,2.97993a23.33711,23.33711,0,0,1-7.559-.19259c-.88014-.16778-1.45418-1.94126-2.16794-2.98187a11.53057,11.53057,0,0,1,2.74629-1.71638,12.26409,12.26409,0,0,1,3.31175-.066Z" transform="translate(-1.19922 -0.47335)"/><path class="cls-1" d="M297.186,77.10843c-.22436,1.23472-.16676,2.83194-.841,4.01044a4.31537,4.31537,0,0,1-3.00542,1.75432c-.48014.04733-1.50781-1.60237-1.62826-2.56427a23.13462,23.13462,0,0,1,.01877-6.13125c.14856-1.02512,1.26624-2.76131,1.788-2.7053a4.81549,4.81549,0,0,1,3.1043,1.94114C297.21264,74.29019,297.01006,75.7007,297.186,77.10843Z" transform="translate(-1.19922 -0.47335)"/><path class="cls-1" d="M227.62824,17.60846a13.62072,13.62072,0,0,1-3.28036-.27176c-.92994-.303-2.33732-1.05484-2.38652-1.69684a4.01943,4.01943,0,0,1,1.41829-2.93c1.74-1.40993,7.29615-1.235,9.00364.25444a3.83635,3.83635,0,0,1,1.20852,2.78369c-.04354.57338-1.32443,1.28729-2.16382,1.50989A21.354,21.354,0,0,1,227.62824,17.60846Z" transform="translate(-1.19922 -0.47335)"/><path class="cls-1" d="M183.12375,127.74372c-3.0839.072-7.9462-4.75023-7.6974-7.19017a3.8433,3.8433,0,0,1,1.49242-2.42626c.42065-.3007,1.66906.046,2.20007.5025a56.03758,56.03758,0,0,1,5.313,5.14725,2.82162,2.82162,0,0,1,.47308,2.49276C184.54529,127.04324,183.467,127.48249,183.12375,127.74372Z" transform="translate(-1.19922 -0.47335)"/><path class="cls-1" d="M163.69192,77.12949a10.79463,10.79463,0,0,1-.06062,3.03589c-.30684,1.005-1.1659,2.67279-1.64843,2.62685-1.1534-.10982-3.1125-.97579-3.17693-1.68006a34.36359,34.36359,0,0,1,.35566-8.41254c.09823-.6236,1.88333-1.301,2.90569-1.32339.50373-.011,1.29883,1.356,1.49571,2.2073a16.0713,16.0713,0,0,1,.06417,3.54573Z" transform="translate(-1.19922 -0.47335)"/><path class="cls-1" d="M175.24081,35.81063c.03363-3.05906,5.09183-7.86715,7.43543-7.4966a3.85261,3.85261,0,0,1,2.36209,1.6323c.27753.44309-.17064,1.6616-.65728,2.20349a49.89337,49.89337,0,0,1-5.08873,5.01543,3.0915,3.0915,0,0,1-2.66989.48251C175.87272,37.31954,175.4847,36.16511,175.24081,35.81063Z" transform="translate(-1.19922 -0.47335)"/><path class="cls-1" d="M240.12957,118.59057c3.41568-5.424,4.57188-10.72032.64715-16.67571H248.777c-3.61519,2.20694-2.94308,6.00192-3.88727,9.16538a31.383,31.383,0,0,1-2.94636,6.12448C241.60275,117.81421,240.74859,118.13668,240.12957,118.59057Z" transform="translate(-1.19922 -0.47335)"/><path class="cls-1" d="M214.29222,118.70237a19.80311,19.80311,0,0,1-3.15333-3.57741,16.62946,16.62946,0,0,1-1.54226-5.09455c-.48059-2.94289-.36564-6.08476-4.07437-7.50362l.4713-.52975h7.95114c-3.83974,5.72508-2.963,11.102,1.11731,16.24928Z" transform="translate(-1.19922 -0.47335)"/><path class="cls-1" d="M272.86466,82.77982c-.64726,6.30877-3.02945,8.66429-8.63609,9.61492-2.24577.38079-4.42225,1.17026-6.61012,1.7682l-2.6191-6.43964c3.28821,2.67146,6.48559,3.40784,10.1211,2.4894C268.88253,89.26231,271.15478,86.88457,272.86466,82.77982Z" transform="translate(-1.19922 -0.47335)"/><path class="cls-1" d="M182.73388,85.10514c5.64925,6.44472,8.43386,6.99981,17.20933,3.61807l-2.39042,5.63306c-2.43647-.60985-4.9317-1.36058-7.47771-1.84391C185.55554,91.65435,183.53977,89.80549,182.73388,85.10514Z" transform="translate(-1.19922 -0.47335)"/><path class="cls-1" d="M281.65635,76.368a4.77836,4.77836,0,0,1-.869,1.4294c-1.90985,1.47337-3.88588,2.861-5.93706,4.35109V72.41847c2.07968,1.21858,4.48029,2.6252,6.881,4.03119Z" transform="translate(-1.19922 -0.47335)"/><path class="cls-1" d="M189.26383,113.67221l.85965-7.21358,6.07034,6.565Z" transform="translate(-1.19922 -0.47335)"/><path class="cls-1" d="M265.14884,105.87518c.19351,2.46192.40708,5.17917.61158,7.781l-7.951-.8812Z" transform="translate(-1.19922 -0.47335)"/><path class="cls-1" d="M189.97618,49.74921l-.5421-7.815,7.97856.78587Z" transform="translate(-1.19922 -0.47335)"/><path class="cls-1" d="M227.15209,129.04557,222.12,122.821h10.33385Z" transform="translate(-1.19922 -0.47335)"/><path class="cls-1" d="M258.78849,42.59737l7.12471-.71015c-.26979,2.32347-.575,4.95193-.90632,7.80532Z" transform="translate(-1.19922 -0.47335)"/><path class="cls-1" d="M180.49129,72.011V82.10159l-6.24482-5.22137Z" transform="translate(-1.19922 -0.47335)"/><path class="cls-1" d="M232.54568,34.03326h-9.60483l4.87334-6.05662Z" transform="translate(-1.19922 -0.47335)"/><path class="cls-1" d="M194.86418,54.6002c3.40874-3.87662,11.00087-5.41335,14.31791-2.84761Z" transform="translate(-1.19922 -0.47335)"/><path class="cls-1" d="M245.86456,51.61621c3.29095-2.47613,10.16454-1.1876,14.63255,2.85342Z" transform="translate(-1.19922 -0.47335)"/><path class="cls-1" d="M222.62069,37.38379H232.8218c-2.07878,1.79093-3.73682,4.32052-5.3087,4.26806C225.89788,41.59793,224.36679,39.02285,222.62069,37.38379Z" transform="translate(-1.19922 -0.47335)"/><path class="cls-1" d="M236.732,84.37912l-6.94249-.47631-.53574-.81847c1.06794-1.08465,2.029-2.92867,3.22588-3.09715C235.03586,79.62735,235.92805,81.83888,236.732,84.37912Z" transform="translate(-1.19922 -0.47335)"/><path class="cls-1" d="M225.12528,83.9732l-6.83785.31534c.49087-2.50207,1.4613-4.22836,3.85376-4.424,2.57256-.21043,2.187,2.25219,3.24722,3.424Z" transform="translate(-1.19922 -0.47335)"/><path class="cls-1" d="M222.62527,92.39051a3.849,3.849,0,0,1-1.50665.03811,10.12131,10.12131,0,0,1-1.78492-1.17713c.50235-.601.91423-1.58006,1.52544-1.72637a13.88052,13.88052,0,0,1,4.28605-.26826c.58247.0467,1.10718.814,1.65817,1.25346-.46412.5665-.82344,1.40457-1.41767,1.63391A9.70465,9.70465,0,0,1,222.62527,92.39051Z" transform="translate(-1.19922 -0.47335)"/><path class="cls-1" d="M226.511,93.28134c.70258,2.35441.19941,3.37647-2.00923,3.174-1.17775-.108-2.39071.07895-3.5499-.1054-.585-.093-1.08559-.71645-1.62435-1.1.44484-.49853.83166-1.348,1.34488-1.43286C222.56607,93.50394,224.50157,93.44382,226.511,93.28134Z" transform="translate(-1.19922 -0.47335)"/><path class="cls-1" d="M232.31768,92.27817a12.64009,12.64009,0,0,1-3.00678-.34386,2.192,2.192,0,0,1-1.07319-1.60659c-.03663-.32853.79713-1.04216,1.28389-1.0866a14.60483,14.60483,0,0,1,4.29282.09032c.68922.14585,1.19986,1.13563,1.79127,1.74369a18.66384,18.66384,0,0,1-2.02932,1.17822A3.3576,3.3576,0,0,1,232.31768,92.27817Z" transform="translate(-1.19922 -0.47335)"/><path class="cls-1" d="M231.98328,96.35789a6.8109,6.8109,0,0,1-2.26215-.05645c-.621-.23244-1.06509-.93723-1.58707-1.43408.58945-.50056,1.14059-1.35907,1.77635-1.42714a11.29129,11.29129,0,0,1,4.01986.30976c.6589.17459,1.12709,1.06884,1.68148,1.63785a9.22993,9.22993,0,0,1-1.86732,1.10193,5.24252,5.24252,0,0,1-1.76129-.05733Z" transform="translate(-1.19922 -0.47335)"/><path class="cls-1" d="M214.23632,96.85277a3.81594,3.81594,0,0,1-1.27347-.0251,18.47223,18.47223,0,0,1-2.01549-1.03311c.60289-.54784,1.12605-1.38393,1.82686-1.57777a9.19466,9.19466,0,0,1,3.55826-.20372c.63391.08243,1.185.80167,1.77348,1.23368a8.39619,8.39619,0,0,1-1.83942,1.5097,5.46569,5.46569,0,0,1-2.03035.05113Z" transform="translate(-1.19922 -0.47335)"/><path class="cls-1" d="M240.97894,97.21829c-1.77871-.90881-4.26851.57357-4.05748-2.00765.20226-2.474,2.45057-1.05562,3.70159-1.00459,1.12924.04606,2.22537.90374,3.3361,1.4035Z" transform="translate(-1.19922 -0.47335)"/><path class="cls-1" d="M238.45109,89.80257a26.67494,26.67494,0,0,1,4.25295.54149c.53512.16277.86526.99945,1.28826,1.53086-.48839.36746-.94857.99288-1.47089,1.05a9.09085,9.09085,0,0,1-3.554-.13658c-.83095-.25415-1.45658-1.17956-2.17361-1.80617Z" transform="translate(-1.19922 -0.47335)"/><path class="cls-1" d="M214.29386,92.98391c-.75921.03332-1.34051.22284-1.75287.03717-.57-.25664-1.397-.785-1.40938-1.21708a1.943,1.943,0,0,1,1.16593-1.4764,16.96566,16.96566,0,0,1,4.2635-.44053c.54373.01142,1.07345.69018,1.60956,1.06484-.45233.60005-.78606,1.4711-1.38608,1.7337A7.71188,7.71188,0,0,1,214.29386,92.98391Z" transform="translate(-1.19922 -0.47335)"/><path class="cls-1" d="M232.89073,54.29743c2.35573-3.48464,6.18218-4.45637,10.05883-2.52494Z" transform="translate(-1.19922 -0.47335)"/><path class="cls-1" d="M222.08074,54.31607l-9.61629-2.23924C214.78883,49.63483,219.5641,50.6924,222.08074,54.31607Z" transform="translate(-1.19922 -0.47335)"/><path class="cls-1" d="M225.4612,76.984h4.04486c-.53014,2.32614-1.01822,4.46768-1.50628,6.60922l-.94715.01592C226.54538,81.49739,226.03812,79.3857,225.4612,76.984Z" transform="translate(-1.19922 -0.47335)"/><path class="cls-1" d="M252.28736,93.7486c-2.06132-.19684-4.13208-.33243-6.17516-.64747-.36393-.05613-.85078-.86179-.84133-1.31212.0078-.37238.67784-1.05743,1.03145-1.04294C248.5801,90.83942,250.88727,90.997,252.28736,93.7486Z" transform="translate(-1.19922 -0.47335)"/><path class="cls-1" d="M209.3676,90.923c.6497,2.71314-1.62639,3.56482-6.57183,2.45908C203.79289,91.69063,205.7039,90.97557,209.3676,90.923Z" transform="translate(-1.19922 -0.47335)"/><path class="cls-1" d="M252.76992,95.04347c-1.42847,1.69624-5.89394,2.46559-7.03695,1.5376-.27337-.22194-.56272-.88789-.44567-1.03759.31555-.40351.85053-.90216,1.291-.89514C248.499,94.679,250.417,94.876,252.76992,95.04347Z" transform="translate(-1.19922 -0.47335)"/><path class="cls-1" d="M202.261,95.01207c2.37309-.126,4.28374-.2725,6.19558-.29007a1.37453,1.37453,0,0,1,1.05669.77971,1.48019,1.48019,0,0,1-.47886,1.27386C207.84526,97.61125,203.68972,96.7058,202.261,95.01207Z" transform="translate(-1.19922 -0.47335)"/><path class="cls-1" d="M256.306,99.28567l1.15513,4.7659-4.36306-2.50768Z" transform="translate(-1.19922 -0.47335)"/><path class="cls-1" d="M197.51489,103.96314l1.19863-4.57365,3.22689,1.97768Z" transform="translate(-1.19922 -0.47335)"/><path d="M222.47853,72.15832c-5.19021.94712-8.76963,3.81008-12.32825,6.72435a7.88551,7.88551,0,0,1-7.5132,1.50125,21.20924,21.20924,0,0,0-11.10262-.1646,13.37341,13.37341,0,0,1-1.92362.01087A23.90372,23.90372,0,0,0,191.987,77.782c1.80323-2.586,3.66383-5.14851,5.24426-7.87,3.16139-5.4438,8.62782-6.7119,13.6654-3.38865C214.25628,68.7397,218.17527,70.1081,222.47853,72.15832Zm-3.44467-.57289c-2.52917-1.17685-5.15339-2.22653-7.61226-3.57722-5.36028-2.9445-5.32588-3.00712-7.52752-2.08044,5.06031.59725,7.80655,3.28125,7.44717,7.27838a6.664,6.664,0,0,1-6.9987,5.76882c-4.235-.33123-6.03585-3.2712-5.58718-9.66828l-5.76228,9.06569c3.47223.43815,6.876,1.06107,10.30162,1.223a10.71256,10.71256,0,0,0,5.61771-1.03877C212.41688,76.52639,215.62252,73.98037,219.03386,71.58543Z" transform="translate(-1.19922 -0.47335)"/><path d="M264.79265,80.15011c-.77272-.11842-1.48758-.25028-2.208-.33457-3.27753-.38349-6.44523-.98921-9.7935.40268-2.68676,1.11689-5.54754.258-7.96007-1.57225a58.69787,58.69787,0,0,0-5.5913-4.04678,63.70774,63.70774,0,0,0-6.25339-2.83547c1.57467-.66067,3.02938-1.20184,4.4227-1.87084,2.45408-1.1783,4.9548-2.29393,7.28566-3.68728,5.04261-3.01438,9.56844-2.07139,12.805,2.85226C259.8925,72.698,262.286,76.33764,264.79265,80.15011Zm-8.2781-10.67973L252.722,66.1961c-2.18609-1.68481-4.37129-.99779-6.478.10608-3.38551,1.7739-6.72174,3.6419-9.8198,5.32909,3.16812,2.21469,6.47567,4.9229,10.16389,6.93245,1.7559.9567,4.237.77034,6.38852.76321,2.42854-.00807,4.854-.4212,7.2848-.60452a19.68988,19.68988,0,0,1,2.44769.14359C260.49924,75.51419,258.50689,72.49229,256.51454,69.47038Z" transform="translate(-1.19922 -0.47335)"/><path d="M227.73343,104.481a27.29448,27.29448,0,0,1,5.60074.09937c1.20013.25633,3.03769,1.39808,3.0991,2.251a5.80949,5.80949,0,0,1-1.62849,4.37542c-2.87861,2.35988-11.6733,2.17166-14.74633.06974a3.86465,3.86465,0,0,1-1.90668-4.36369c.44235-1.81334,1.80235-2.39811,3.45077-2.44993,2.04172-.06418,4.087-.01536,6.13072-.01536Z" transform="translate(-1.19922 -0.47335)"/><path class="cls-1" d="M219.03386,71.58543c-3.41134,2.39494-6.617,4.941-10.12143,6.97115a10.71256,10.71256,0,0,1-5.61771,1.03877c-3.42559-.16189-6.8294-.78481-10.30162-1.223l5.76228-9.06569c-.44868,6.39708,1.35222,9.337,5.58718,9.66828a6.664,6.664,0,0,0,6.9987-5.76882c.35937-3.99713-2.38686-6.68113-7.44717-7.27838,2.20163-.92669,2.16723-.86407,7.52752,2.08044C213.88047,69.35891,216.50469,70.40858,219.03386,71.58543Z" transform="translate(-1.19922 -0.47335)"/><path d="M252.722,66.1961l3.79251,3.27428c.06662.93089.16093,1.86079.1947,2.79287a6.2986,6.2986,0,0,1-4.34279,6.27817,6.51346,6.51346,0,0,1-7.58479-2.7789,6.27235,6.27235,0,0,1,.66305-7.37923C247.403,66.12572,249.98019,65.8743,252.722,66.1961Z" transform="translate(-1.19922 -0.47335)"/><path class="cls-1" d="M252.722,66.1961c-2.74183-.3218-5.319-.07038-7.27731,2.18719a6.27235,6.27235,0,0,0-.66305,7.37923,6.51346,6.51346,0,0,0,7.58479,2.7789,6.2986,6.2986,0,0,0,4.34279-6.27817c-.03378-.93209-.12808-1.862-.1947-2.79287,1.99235,3.02191,3.9847,6.04382,6.19455,9.39563a19.68988,19.68988,0,0,0-2.44769-.14359c-2.43083.18332-4.85626.59645-7.2848.60452-2.15149.00714-4.63262.19349-6.38852-.76321-3.68822-2.00955-6.99577-4.71776-10.16389-6.93245,3.09805-1.68719,6.43428-3.55519,9.8198-5.32909C248.35074,65.19831,250.53593,64.51129,252.722,66.1961Z" transform="translate(-1.19922 -0.47335)"/></svg>